<?xml version="1.0" standalone="no"?>
<!DOCTYPE svg PUBLIC "-//W3C//DTD SVG 20010904//EN"
 "http://www.w3.org/TR/2001/REC-SVG-20010904/DTD/svg10.dtd">
<svg version="1.0" xmlns="http://www.w3.org/2000/svg"
 width="512.000000pt" height="512.000000pt" viewBox="0 0 512.000000 512.000000"
 preserveAspectRatio="xMidYMid meet">
<metadata>
Created by potrace 1.14, written by Peter Selinger 2001-2017
</metadata>
<g transform="translate(0.000000,512.000000) scale(0.100000,-0.100000)"
fill="#000000" stroke="none">
<path d="M4613 4199 c-150 -27 -257 -141 -270 -288 l-5 -56 125 0 126 -1 6 38
c10 55 39 88 79 88 87 0 96 -119 17 -233 -44 -64 -130 -150 -248 -246 l-103
-84 0 -98 0 -99 340 0 c265 0 340 3 341 13 0 14 0 177 0 192 -1 6 -61 10 -161
10 l-160 0 42 34 c124 99 224 228 257 331 25 80 17 190 -19 260 -55 109 -209
167 -367 139z"/>
<path d="M100 3668 c0 -8 23 -106 100 -423 23 -93 43 -177 45 -185 1 -8 8 -35
15 -60 7 -25 13 -52 15 -60 3 -16 107 -446 186 -770 28 -113 52 -212 54 -220
22 -95 62 -258 86 -355 16 -65 32 -131 35 -145 2 -14 33 -140 67 -280 l63
-255 468 0 c300 0 471 4 476 10 4 6 10 24 14 40 3 17 9 41 12 55 3 14 9 41 14
60 5 19 11 46 14 60 2 14 10 48 16 75 6 28 13 57 15 65 8 37 118 515 139 605
13 55 27 114 30 130 7 34 8 38 35 155 11 47 22 96 25 110 3 14 15 66 26 115
12 50 23 99 26 110 2 11 8 36 13 55 l8 35 10 -40 c6 -22 25 -105 42 -185 18
-80 39 -172 46 -205 34 -148 87 -382 91 -401 2 -12 42 -192 89 -400 47 -208
89 -395 93 -414 l8 -35 468 0 c302 0 470 3 476 10 6 8 32 105 65 245 2 8 24
101 50 205 26 105 48 197 50 205 5 24 98 399 108 440 4 14 45 183 92 375 47
193 89 366 95 385 8 28 53 213 76 313 7 31 12 50 73 297 34 135 63 254 65 266
l4 21 -416 -1 -416 -1 -7 -40 c-4 -22 -10 -58 -13 -80 -6 -37 -14 -82 -22
-130 -11 -60 -24 -134 -29 -165 -3 -19 -8 -48 -11 -63 -3 -16 -7 -38 -9 -50
-2 -20 -32 -196 -41 -242 -2 -10 -6 -37 -9 -60 -3 -22 -8 -47 -10 -55 -2 -8
-7 -33 -10 -55 -3 -23 -8 -52 -10 -65 -5 -22 -28 -156 -41 -235 -3 -16 -14
-82 -25 -145 -22 -125 -23 -134 -34 -200 -4 -25 -9 -54 -11 -65 -3 -11 -7 -36
-10 -55 -8 -52 -11 -71 -20 -115 -7 -38 -8 -34 -35 80 -15 66 -30 131 -32 145
-3 14 -17 77 -32 140 -15 63 -33 142 -40 175 -11 50 -88 394 -100 445 -2 8
-10 44 -18 80 -8 36 -33 148 -57 250 -23 102 -44 196 -46 210 -3 14 -10 43
-16 65 -6 22 -11 45 -12 50 -29 141 -40 176 -60 180 -12 2 -200 3 -419 3 -393
-1 -408 -2 -413 -33 -1 -5 -12 -53 -24 -105 -28 -122 -24 -104 -60 -260 -17
-74 -33 -142 -35 -150 -25 -112 -117 -511 -121 -530 -3 -14 -8 -32 -10 -40 -2
-8 -11 -46 -20 -85 -18 -82 -19 -85 -34 -150 -6 -27 -13 -57 -15 -65 -2 -8
-17 -74 -34 -147 -17 -72 -32 -142 -35 -155 -10 -52 -29 -124 -36 -131 -5 -6
-41 180 -56 298 -2 17 -8 53 -14 80 -5 28 -12 65 -15 83 -13 79 -16 100 -26
152 -6 30 -12 67 -14 82 -2 15 -9 53 -14 85 -6 32 -13 73 -16 91 -3 17 -7 44
-10 60 -2 15 -7 43 -10 62 -3 19 -8 42 -10 50 -2 8 -7 35 -10 60 -3 25 -15 94
-25 153 -11 60 -22 130 -26 155 -3 26 -8 49 -9 52 -2 3 -6 26 -10 50 -9 66
-14 97 -30 185 -20 110 -23 128 -24 141 -1 13 -831 16 -831 2z"/>
</g>
</svg>
