<?xml version="1.0" standalone="no"?>
<!DOCTYPE svg PUBLIC "-//W3C//DTD SVG 20010904//EN"
 "http://www.w3.org/TR/2001/REC-SVG-20010904/DTD/svg10.dtd">
<svg version="1.0" xmlns="http://www.w3.org/2000/svg"
 width="512.000000pt" height="512.000000pt" viewBox="0 0 512.000000 512.000000"
 preserveAspectRatio="xMidYMid meet">
<metadata>
Created by potrace 1.14, written by Peter Selinger 2001-2017
</metadata>
<g transform="translate(0.000000,512.000000) scale(0.100000,-0.100000)"
fill="#000000" stroke="none">
<path d="M2325 5109 c-498 -46 -991 -248 -1380 -564 -121 -98 -334 -318 -423
-437 -266 -355 -429 -748 -499 -1198 -24 -161 -24 -539 0 -700 74 -476 262
-909 552 -1265 227 -279 519 -512 846 -674 537 -267 1123 -337 1714 -205 261
58 603 204 828 353 389 259 688 599 893 1016 125 255 196 484 241 775 24 161
24 539 0 700 -74 476 -262 909 -552 1265 -227 279 -519 512 -846 674 -431 214
-903 304 -1374 260z m555 -375 c480 -62 900 -279 1260 -650 184 -190 299 -351
406 -569 142 -291 214 -611 214 -951 0 -614 -212 -1127 -645 -1559 -413 -414
-889 -621 -1470 -642 -479 -17 -918 104 -1287 353 -342 231 -639 573 -798 920
-209 455 -253 1006 -119 1513 152 577 591 1105 1150 1386 377 190 825 259
1289 199z"/>
<path d="M1707 3156 c-93 -25 -177 -122 -218 -251 -32 -97 -32 -243 0 -334 56
-161 157 -251 283 -251 168 0 298 182 298 420 0 143 -44 261 -128 347 -67 69
-148 93 -235 69z"/>
<path d="M3305 3161 c-101 -26 -190 -128 -231 -266 -26 -88 -24 -240 5 -324
71 -205 225 -298 376 -227 180 84 261 387 163 616 -61 143 -198 231 -313 201z"/>
</g>
</svg>
