<svg xmlns="http://www.w3.org/2000/svg" version="1.1" xmlns:xlink="http://www.w3.org/1999/xlink" xmlns:svgjs="http://svgjs.com/svgjs" width="1440" height="560" preserveAspectRatio="none" viewBox="0 0 1440 560"><g mask="url(&quot;#SvgjsMask1002&quot;)" fill="none"><rect width="1440" height="560" x="0" y="0" fill="rgba(54, 67, 78, 1)"></rect><path d="M0,390.459C76.577,392.97,160.231,390.261,219.994,342.317C278.378,295.48,280.977,210.571,310.154,141.643C338.335,75.067,404.785,14.582,388.54,-55.864C372.21,-126.676,277.78,-144.561,231.277,-200.403C183.365,-257.937,182.39,-357.127,113.412,-386.244C45.014,-415.116,-31.383,-368.806,-99.89,-340.194C-162.156,-314.189,-222.234,-281.747,-263.893,-228.664C-304.396,-177.053,-318.116,-111.98,-329.67,-47.399C-341.593,19.246,-352.331,87.03,-331.92,151.583C-309.961,221.03,-270.031,285.641,-210.913,328.187C-150.185,371.892,-74.78,388.007,0,390.459" fill="#2b363e"></path><path d="M1440 980.952C1552.869 980.675 1654.422 1095.267 1761.954 1060.97 1870.821 1026.247 1945.83 916.004 1982.723 807.8530000000001 2018.2350000000001 703.75 1994.691 589.271 1958.2640000000001 485.485 1926.2730000000001 394.339 1852.474 330.405 1789.451 257.199 1726.199 183.726 1675.672 97.18400000000003 1588.124 55.53800000000001 1492.611 10.102999999999952 1376.863-27.480999999999995 1279.92 14.817999999999984 1183.632 56.83100000000002 1166.363 184.12900000000002 1102.403 267.47 1043.454 344.28200000000004 953.511 394.625 919.007 485.093 879.712 588.124 860.329 704.085 896.098 808.392 933.2629999999999 916.771 1007.821 1027.903 1117.03 1062.551 1225.058 1096.825 1326.665 981.23 1440 980.952" fill="#41505e"></path></g><defs><mask id="SvgjsMask1002"><rect width="1440" height="560" fill="#ffffff"></rect></mask></defs></svg>